<svg width="15" height="15" viewBox="0 0 15 15" fill="none" xmlns="http://www.w3.org/2000/svg">
<circle cx="15" cy="15" r="14" stroke="white" stroke-width="2"/>
<circle cx="69" cy="15" r="14" stroke="white" stroke-width="2"/>
<circle cx="123" cy="15" r="14" stroke="white" stroke-width="2"/>
<circle cx="177" cy="16" r="14" stroke="white" stroke-width="2"/>
<path d="M3.87539 13.125H1.1543V4.36232H3.87539V13.125ZM2.51338 3.167C1.64326 3.167 0.9375 2.4463 0.9375 1.57618C0.9375 1.15823 1.10353 0.757404 1.39906 0.461869C1.6946 0.166335 2.09543 0.000305176 2.51338 0.000305176C2.93133 0.000305176 3.33216 0.166335 3.62769 0.461869C3.92323 0.757404 4.08926 1.15823 4.08926 1.57618C4.08926 2.4463 3.3832 3.167 2.51338 3.167ZM14.0596 13.125H11.3443V8.85939C11.3443 7.84279 11.3238 6.53908 9.92959 6.53908C8.51484 6.53908 8.29805 7.64357 8.29805 8.78615V13.125H5.57988V4.36232H8.18965V5.55763H8.22773C8.59102 4.86915 9.47842 4.14259 10.8023 4.14259C13.5562 4.14259 14.0625 5.95607 14.0625 8.31154V13.125H14.0596Z" fill="white"/>
</svg>
